<?xml version="1.0" standalone="no"?>
<!DOCTYPE svg PUBLIC "-//W3C//DTD SVG 20010904//EN"
 "http://www.w3.org/TR/2001/REC-SVG-20010904/DTD/svg10.dtd">
<svg version="1.0" xmlns="http://www.w3.org/2000/svg"
 width="102.000000pt" height="102.000000pt" viewBox="0 0 102.000000 102.000000"
 preserveAspectRatio="xMidYMid meet">
<metadata>
Created by potrace 1.11, written by Peter Selinger 2001-2013
</metadata>
<g transform="translate(0.000000,102.000000) scale(0.100000,-0.100000)"
fill="#000000" stroke="none">
<path d="M150 975 l0 -45 40 0 40 0 0 -125 0 -125 40 0 40 0 0 -130 0 -130
-40 0 -40 0 0 -170 0 -170 80 0 80 0 0 -40 0 -40 240 0 240 0 0 510 0 510 -80
0 -80 0 0 -215 0 -215 -80 0 -80 0 0 45 0 45 -40 0 -40 0 0 40 0 40 -40 0 -40
0 0 130 0 130 -120 0 -120 0 0 -45z m560 -680 l0 -125 -160 0 -160 0 0 125 0
125 160 0 160 0 0 -125z"/>
</g>
</svg>
